<svg version="1.2" xmlns="http://www.w3.org/2000/svg" viewBox="34.813 114.124 231.507 70.876" width="233" height="71"><style>.s0{fill:#fefefe}.s1{fill:#fff}.s2{fill:#0048bc}</style><g id="Layer 1"><path class="s0" d="M248.72 114.35c3.91-.51 12.11-.03 16.27.2v12.95q-2.2-.01-4.39-.07c-5.46-.09-12.75-.69-16.95 3.44-3.56 3.35-3.67 8.78-.07 12.16 4.99 4.68 14.86 3.5 21.42 3.46l-.03 12.82c-3.32.46-6.91.28-10.25.45-11.55.59-22.94-3.79-28.25-14.87.11 4.25.03 8.81.03 13.08l-16.48.02-.08-21.35c-5.53 7.08-12.18 14.23-17.89 21.33-5.63.08-11.39.02-17.03.02l-.02-14.05q-.01-3.69-.08-7.37c-5.18 7.06-12.7 14.42-17.86 21.39-5.74.1-11.67.03-17.43.02 2.41-2.23 6.66-7.28 8.97-9.86l17.63-19.59c2.9-3.21 5.73-6.44 8.7-9.6 2.81-2.98 4.72-2.46 8.52-2.48 2.68-.02 5.38.04 8.06.07 0 7.28.18 15.45-.08 22.65 6.39-6.16 12.07-13.85 18.39-20.14 2.16-2.15 3.15-2.58 6.15-2.59 3.53 0 7.03.04 10.54.08.01 4.08.06 8.21-.09 12.28 4.71-8.71 12.52-13.47 22.3-14.45zM117.01 116.51q6.62-.03 13.25.02c.01 7.41.17 15.58-.06 22.92 4.49-5.64 10.36-11.05 14.99-16.66 1.68-2.02 4.4-5.02 6.65-6.26q6.71-.07 13.42 0v10.19c-2.14 2.81-5.3 6.14-7.74 8.82-2.75 3.04-5.87 6.78-8.76 9.6q-.02-4.19 0-8.38c-4.95 6.01-10.14 12.01-15.17 17.97a49.072 49.072 0 0 0-2.66 3.26h-17.18l.01-21.23c-5.84 7.12-12.13 14.08-17.91 21.22q-8.61.04-17.22-.03c11.84-12.61 23.01-26.12 34.87-38.73 1.19-1.27 1.89-1.98 3.51-2.71z"/><path id="Shape 1" fill-rule="evenodd" class="s1" d="M184 179.51v2.98H35v-2.98z"/><g id="Folder 1"><path id="Shape 2" fill-rule="evenodd" class="s2" d="m103 122.35-15.27 16.86-27.54-.13 15.96-16.86z"/><path id="Shape 2 copy" fill-rule="evenodd" class="s2" d="m86 141.35-15.27 16.86-35.92-.13 15.84-16.86z"/><path id="AUTO'S" class="s1" aria-label="AUTO'S" d="M201.1 185h3.6l-5.1-14.7h-4l-5 14.7h3.6l.8-2.6h5.2zm-1.7-5.4H196l1.7-5.4zm1.2 5.4h3.6l-5.1-14.7h-4l-5 14.7h3.6l.8-2.6h5.2zm-1.7-5.4h-3.4l1.7-5.4zm7.6-.5c0 4 2.5 6 5.8 6 3.2 0 5.9-2 5.9-6v-8.8h-3.4v8.8c0 1.7-.8 2.7-2.5 2.7-1.6 0-2.4-1-2.4-2.7v-8.8h-3.4zm-.5 0c0 4 2.5 6 5.8 6 3.2 0 5.9-2 5.9-6v-8.8h-3.4v8.8c0 1.7-.9 2.7-2.5 2.7s-2.4-1-2.4-2.7v-8.8H206zm14.8-6h3.7V185h3.4v-11.9h3.7v-2.8h-10.8zm-.5 0h3.7v11.8h3.4v-11.8h3.7v-2.9h-10.8zm27 4.4c0-4.4-3.1-7.5-7.1-7.5-4 0-7.2 3.1-7.2 7.5 0 4.5 3.2 7.6 7.2 7.6 3.9 0 7.1-3.1 7.1-7.6zm-10.8 0c0-2.6 1.4-4.3 3.7-4.3 2.2 0 3.7 1.7 3.7 4.3 0 2.6-1.5 4.3-3.7 4.3-2.3 0-3.7-1.7-3.7-4.3zm10.3 0c0-4.4-3.2-7.5-7.1-7.5-4 0-7.3 3.1-7.3 7.5 0 4.5 3.3 7.6 7.3 7.6 3.9 0 7.1-3.1 7.1-7.6zm-10.9 0c0-2.6 1.5-4.3 3.8-4.3 2.2 0 3.6 1.7 3.6 4.3 0 2.6-1.4 4.3-3.6 4.3-2.3 0-3.8-1.7-3.8-4.3zm14.5-4.7h2.3l.2-4.7h-2.8zm-.5 0h2.3l.2-4.6h-2.8zm14.9 7.8c0-5-6.9-3.8-6.9-6.4 0-.9.6-1.3 1.4-1.3.9 0 1.6.6 1.6 1.5h3.7c-.1-2.8-2.2-4.4-5.2-4.4s-5.1 1.6-5.1 4.4c-.1 5.2 6.9 3.7 6.9 6.4 0 .9-.6 1.4-1.6 1.4s-1.6-.5-1.7-1.6h-3.7c.1 2.9 2.5 4.5 5.5 4.5 3.3 0 5.1-2 5.1-4.5zm-.5 0c0-5-6.9-3.8-6.9-6.4 0-.9.6-1.3 1.4-1.3.9 0 1.6.6 1.6 1.5h3.7c-.1-2.8-2.2-4.4-5.2-4.4s-5.2 1.6-5.2 4.4c0 5.2 7 3.7 7 6.4 0 .9-.6 1.4-1.6 1.4s-1.7-.5-1.8-1.6h-3.6c.1 2.9 2.5 4.5 5.5 4.5 3.2 0 5.1-2 5.1-4.5z"/></g></g></svg>